HIERARCHY
ROOT hip
{
  OFFSET 0 0 0
  CHANNELS 6 Xposition Yposition Zposition Zrotation Yrotation Xrotation
  JOINT abdomen
  {
    OFFSET 0 20.6881 -0.73152
    CHANNELS 3 Zrotation Xrotation Yrotation
    JOINT chest
    {
      OFFSET 0 11.7043 -0.48768
      CHANNELS 3 Zrotation Xrotation Yrotation
      JOINT neck
      {
        OFFSET 0 22.1894 -2.19456
        CHANNELS 3 Zrotation Xrotation Yrotation
        JOINT head
        {
          OFFSET -0.24384 7.07133 1.2192
          CHANNELS 3 Zrotation Xrotation Yrotation
          JOINT leftEye
          {
            OFFSET 4.14528 8.04674 8.04672
            CHANNELS 3 Zrotation Xrotation Yrotation
            End Site
            {
              OFFSET 1 0 0
            }
          }
          JOINT rightEye
          {
            OFFSET -3.6576 8.04674 8.04672
            CHANNELS 3 Zrotation Xrotation Yrotation
            End Site
            {
              OFFSET 1 0 0
            }
          }
        }
      }
      JOINT rCollar
      {
        OFFSET -2.68224 19.2634 -4.8768
        CHANNELS 3 Zrotation Xrotation Yrotation
        JOINT rShldr
        {
          OFFSET -8.77824 -1.95073 1.46304
          CHANNELS 3 Zrotation Xrotation Yrotation
          JOINT rForeArm
          {
            OFFSET -28.1742 -1.7115 0.48768
            CHANNELS 3 Zrotation Xrotation Yrotation
            JOINT rHand
            {
              OFFSET -22.5879 0.773209 7.07136
              CHANNELS 3 Zrotation Xrotation Yrotation
              JOINT rThumb1
              {
                OFFSET -1.2192 -0.487915 3.41376
                CHANNELS 3 Zrotation Xrotation Yrotation
                JOINT rThumb2
                {
                  OFFSET -3.37035 -0.52449 3.41376
                  CHANNELS 3 Zrotation Xrotation Yrotation
                  End Site
                  {
                    OFFSET -1.78271 -1.18214 1.43049
                  }
                }
              }
              JOINT rIndex1
              {
                OFFSET -7.75947 0.938293 5.60832
                CHANNELS 3 Zrotation Xrotation Yrotation
                JOINT rIndex2
                {
                  OFFSET -2.54057 -0.884171 1.56538
                  CHANNELS 3 Zrotation Xrotation Yrotation
                  End Site
                  {
                    OFFSET -1.62519 -0.234802 1.16502
                  }
                }
              }
              JOINT rMid1
              {
                OFFSET -8.24714 1.18213 3.41376
                CHANNELS 3 Zrotation Xrotation Yrotation
                JOINT rMid2
                {
                  OFFSET -3.10165 -0.590103 1.0647
                  CHANNELS 3 Zrotation Xrotation Yrotation
                  End Site
                  {
                    OFFSET -2.48547 -0.328903 0.83742
                  }
                }
              }
              JOINT rRing1
              {
                OFFSET -8.82822 0.546677 1.51678
                CHANNELS 3 Zrotation Xrotation Yrotation
                JOINT rRing2
                {
                  OFFSET -2.60934 -0.819778 -0.0198488
                  CHANNELS 3 Zrotation Xrotation Yrotation
                  End Site
                  {
                    OFFSET -2.33842 -0.294052 0.168128
                  }
                }
              }
              JOINT rPinky1
              {
                OFFSET -8.27202 -0.0477905 -0.4584
                CHANNELS 3 Zrotation Xrotation Yrotation
                JOINT rPinky2
                {
                  OFFSET -1.82734 -0.647385 -0.700984
                  CHANNELS 3 Zrotation Xrotation Yrotation
                  End Site
                  {
                    OFFSET -1.69225 -0.51767 -0.607171
                  }
                }
              }
            }
          }
        }
      }
      JOINT lCollar
      {
        OFFSET 2.68224 19.2634 -4.8768
        CHANNELS 3 Zrotation Xrotation Yrotation
        JOINT lShldr
        {
          OFFSET 8.77824 -1.95073 1.46304
          CHANNELS 3 Zrotation Xrotation Yrotation
          JOINT lForeArm
          {
            OFFSET 28.1742 -1.7115 0.48768
            CHANNELS 3 Zrotation Xrotation Yrotation
            JOINT lHand
            {
              OFFSET 22.5879 0.773209 7.07136
              CHANNELS 3 Zrotation Xrotation Yrotation
              JOINT lThumb1
              {
                OFFSET 1.2192 -0.487915 3.41376
                CHANNELS 3 Zrotation Xrotation Yrotation
                JOINT lThumb2
                {
                  OFFSET 3.37035 -0.52449 3.41376
                  CHANNELS 3 Zrotation Xrotation Yrotation
                  End Site
                  {
                    OFFSET 1.78271 -1.18214 1.43049
                  }
                }
              }
              JOINT lIndex1
              {
                OFFSET 7.75947 0.938293 5.60832
                CHANNELS 3 Zrotation Xrotation Yrotation
                JOINT lIndex2
                {
                  OFFSET 2.54057 -0.884171 1.56538
                  CHANNELS 3 Zrotation Xrotation Yrotation
                  End Site
                  {
                    OFFSET 1.62519 -0.234802 1.16502
                  }
                }
              }
              JOINT lMid1
              {
                OFFSET 8.24714 1.18213 3.41376
                CHANNELS 3 Zrotation Xrotation Yrotation
                JOINT lMid2
                {
                  OFFSET 3.10165 -0.590103 1.0647
                  CHANNELS 3 Zrotation Xrotation Yrotation
                  End Site
                  {
                    OFFSET 2.48547 -0.328903 0.83742
                  }
                }
              }
              JOINT lRing1
              {
                OFFSET 8.82822 0.546677 1.51678
                CHANNELS 3 Zrotation Xrotation Yrotation
                JOINT lRing2
                {
                  OFFSET 2.60934 -0.819778 -0.0198488
                  CHANNELS 3 Zrotation Xrotation Yrotation
                  End Site
                  {
                    OFFSET 2.33842 -0.294052 0.168128
                  }
                }
              }
              JOINT lPinky1
              {
                OFFSET 8.27202 -0.0477905 -0.4584
                CHANNELS 3 Zrotation Xrotation Yrotation
                JOINT lPinky2
                {
                  OFFSET 1.82734 -0.647385 -0.700984
                  CHANNELS 3 Zrotation Xrotation Yrotation
                  End Site
                  {
                    OFFSET 1.69225 -0.51767 -0.607171
                  }
                }
              }
            }
          }
        }
      }
    }
  }
  JOINT rButtock
  {
    OFFSET -8.77824 4.35084 1.2192
    CHANNELS 3 Zrotation Xrotation Yrotation
    JOINT rThigh
    {
      OFFSET 0 -1.70687 -2.19456
      CHANNELS 3 Zrotation Xrotation Yrotation
      JOINT rShin
      {
        OFFSET 0 -36.8199 0.73152
        CHANNELS 3 Zrotation Xrotation Yrotation
        JOINT rFoot
        {
          OFFSET 0.73152 -45.1104 -5.12064
          CHANNELS 3 Zrotation Xrotation Yrotation
          End Site
          {
            OFFSET -1.1221 -3.69964 12.103
          }
        }
      }
    }
  }
  JOINT lButtock
  {
    OFFSET 8.77824 4.35084 1.2192
    CHANNELS 3 Zrotation Xrotation Yrotation
    JOINT lThigh
    {
      OFFSET 0 -1.70687 -2.19456
      CHANNELS 3 Zrotation Xrotation Yrotation
      JOINT lShin
      {
        OFFSET 0 -36.8199 0.73152
        CHANNELS 3 Zrotation Xrotation Yrotation
        JOINT lFoot
        {
          OFFSET -0.73152 -45.1104 -5.12064
          CHANNELS 3 Zrotation Xrotation Yrotation
          End Site
          {
            OFFSET 1.1221 -3.69964 12.103
          }
        }
      }
    }
  }
}
MOTION
Frames:	6
Frame Time:	0.00833333
68.1128 82.8286 -120.436 0.365 -22.3036 10.308 1.33335 5.24447 -7.1516 0.158444 -8.86402 -2.03011 11.2575 27.0225 7.82182 -49.2333 -67.334 -13.6015 -0.0 0.0 0.0 -0.0 0.0 0.0 -1.55226e-14 3.24882e-13 2.43297e-13 72.8174 10.7914 -6.21988 -21.7286 -15.3606 43.038 -0.157203 11.2845 1.60668 -2.17579e-09 2.95775e-09 -5.22092e-11 -3.76087e-09 5.11706e-09 -6.88723e-11 -2.17579e-09 2.95775e-09 -5.2223e-11 7.73091 5.47488 0.417314 -2.17579e-09 2.95775e-09 -5.22114e-11 2.90554 0.965183 0.102902 -2.17578e-09 2.95775e-09 -5.22112e-11 10.2786 0.731801 0.0259123 -2.17579e-09 2.95775e-09 -5.2204e-11 2.22167 -0.733487 -0.20892 -1.56278e-14 3.24882e-13 2.43114e-13 -71.1008 32.1538 10.4534 20.894 -14.18 -40.894 0.613613 -21.6864 3.20381 3.162e-10 -1.68972e-10 -4.30722e-10 5.60688e-10 -2.66415e-10 -7.36813e-10 3.16189e-10 -1.68987e-10 -4.30708e-10 -7.73091 5.47488 -0.417314 3.16196e-10 -1.68981e-10 -4.30721e-10 -2.90554 0.965183 -0.102902 3.16196e-10 -1.68981e-10 -4.30719e-10 -10.2786 0.731801 -0.0259123 3.16211e-10 -1.68977e-10 -4.30723e-10 -2.22167 -0.733487 0.20892 -2.03217e-16 0.0 -3.88251e-19 -0.555314 -19.3878 -5.47421 -0.133267 24.8809 0.335109 2.00522 -13.3361 8.29186 2.03217e-16 0.0 3.88251e-19 -0.297752 -17.6399 -2.86313 0.0610203 21.0557 -0.35611 3.0168 -10.9792 10.1715
68.0933 82.804 -120.323 0.4603 -22.1908 10.0389 1.24071 5.42858 -7.26476 0.0461221 -8.85811 -2.07196 11.4387 26.8912 7.72214 -49.1584 -67.1189 -13.6546 -0.0 0.0 0.0 -0.0 0.0 0.0 2.14473e-14 2.0271e-13 3.06194e-13 73.3953 10.5961 -6.60334 -22.0229 -15.8 43.8151 -0.131336 10.3722 1.47356 -1.24877e-09 2.08555e-09 -2.02603e-10 -2.15888e-09 3.61213e-09 -3.33937e-10 -1.24877e-09 2.08555e-09 -2.02613e-10 7.73091 5.47488 0.417314 -1.24878e-09 2.08555e-09 -2.02603e-10 2.90554 0.965183 0.102902 -1.24877e-09 2.08555e-09 -2.02603e-10 10.2786 0.731801 0.0259123 -1.24877e-09 2.08555e-09 -2.02595e-10 2.22167 -0.733487 -0.20892 2.12866e-14 2.0271e-13 3.06029e-13 -72.2074 31.4593 10.9945 21.0534 -14.3985 -41.2975 0.5765 -21.0702 3.10354 -3.89471e-11 3.01495e-10 3.50205e-10 -7.11117e-11 5.21364e-10 6.08856e-10 -3.89537e-11 3.01486e-10 3.50214e-10 -7.73091 5.47488 -0.417314 -3.8952e-11 3.01489e-10 3.50203e-10 -2.90554 0.965183 -0.102902 -3.89505e-11 3.01493e-10 3.50207e-10 -10.2786 0.731801 -0.0259123 -3.89398e-11 3.01494e-10 3.50202e-10 -2.22167 -0.733487 0.20892 -2.03217e-16 0.0 -3.88251e-19 -0.586776 -19.2002 -5.23186 -0.134359 25.0098 0.340609 1.90211 -13.7929 7.73375 2.03217e-16 0.0 3.88251e-19 -0.381991 -17.3382 -2.71684 0.0594362 20.9515 -0.353648 2.99305 -11.0084 10.0679
68.0884 82.7949 -120.229 0.609 -22.1935 9.8075 1.14858 5.60256 -7.36627 -0.0812273 -8.8584 -2.11177 11.6346 26.7679 7.61078 -49.1009 -66.853 -13.7145 -0.0 0.0 0.0 -0.0 0.0 0.0 5.69775e-14 6.86353e-14 3.75059e-13 73.6706 10.2381 -6.94314 -22.3059 -16.2289 44.6003 -0.110604 9.51147 1.34899 -3.63104e-10 1.28758e-09 -3.27454e-10 -6.28364e-10 2.23604e-09 -5.54087e-10 -3.63102e-10 1.28758e-09 -3.27459e-10 7.73091 5.47488 0.417314 -3.63106e-10 1.28758e-09 -3.27452e-10 2.90554 0.965183 0.102902 -3.63098e-10 1.28758e-09 -3.27452e-10 10.2786 0.731801 0.0259123 -3.63105e-10 1.28759e-09 -3.27443e-10 2.22167 -0.733487 -0.20892 5.67613e-14 6.8636e-14 3.74908e-13 -73.0151 30.6759 11.5158 21.1879 -14.5843 -41.644 0.539757 -20.4201 2.99905 -4.24009e-10 7.64592e-10 1.16296e-09 -7.55351e-10 1.29488e-09 2.00921e-09 -4.24011e-10 7.64591e-10 1.16297e-09 -7.73091 5.47488 -0.417314 -4.24014e-10 7.64591e-10 1.16296e-09 -2.90554 0.965183 -0.102902 -4.24013e-10 7.64596e-10 1.16296e-09 -10.2786 0.731801 -0.0259123 -4.24006e-10 7.64595e-10 1.16296e-09 -2.22167 -0.733487 0.20892 -2.03217e-16 0.0 -3.88251e-19 -0.628131 -19.0211 -4.98405 -0.135447 25.1359 0.346254 1.78315 -14.2642 7.14591 2.03217e-16 0.0 3.88251e-19 -0.473905 -17.0381 -2.5598 0.0577423 20.8335 -0.350686 2.95601 -11.0354 9.91501
68.0921 82.7473 -120.167 0.7815 -22.3105 9.5668 1.09777 5.75284 -7.4276 -0.206143 -8.88285 -2.13955 11.7834 26.7315 7.5271 -49.1298 -66.6349 -13.7872 -0.0 0.0 0.0 -0.0 0.0 0.0 6.25481e-14 -3.81678e-14 4.6123e-13 73.5767 9.69563 -7.19978 -22.5195 -16.5576 45.2175 -0.0987333 8.92635 1.26487 8.66741e-11 1.03913e-09 -2.9617e-10 1.494e-10 1.80902e-09 -5.01312e-10 8.66753e-11 1.03914e-09 -2.96173e-10 7.73091 5.47488 0.417314 8.66711e-11 1.03914e-09 -2.96167e-10 2.90554 0.965183 0.102902 8.66786e-11 1.03914e-09 -2.96167e-10 10.2786 0.731801 0.0259123 8.66711e-11 1.03914e-09 -2.96157e-10 2.22167 -0.733487 -0.20892 6.22928e-14 -3.81678e-14 4.61081e-13 -73.4888 30.0163 11.979 21.2652 -14.6913 -41.8474 0.523 -20.1075 2.94926 -6.23586e-10 1.08232e-09 1.67589e-09 -1.11242e-09 1.82723e-09 2.89376e-09 -6.23587e-10 1.08233e-09 1.67589e-09 -7.73091 5.47488 -0.417314 -6.23592e-10 1.08232e-09 1.67588e-09 -2.90554 0.965183 -0.102902 -6.23591e-10 1.08233e-09 1.67589e-09 -10.2786 0.731801 -0.0259123 -6.23585e-10 1.08233e-09 1.67588e-09 -2.22167 -0.733487 0.20892 -2.03217e-16 0.0 -3.88251e-19 -0.664808 -18.8378 -4.78153 -0.136124 25.2159 0.350195 1.69419 -14.6261 6.72185 2.03217e-16 0.0 3.88251e-19 -0.544641 -16.7724 -2.4161 0.056543 20.747 -0.348498 2.91752 -11.0918 9.73554
68.0877 82.6875 -120.1 0.9057 -22.436 9.2984 1.10175 5.90502 -7.44386 -0.323368 -8.96515 -2.15356 11.8855 26.8062 7.47625 -49.2838 -66.4327 -13.8639 -0.0 0.0 0.0 -0.0 0.0 0.0 1.3767e-14 -1.17917e-13 6.24974e-13 73.0485 8.92629 -7.39032 -22.6694 -16.7936 45.6516 -0.0946494 8.69677 1.23199 -2.43553e-10 1.90318e-09 5.19514e-11 -4.19559e-10 3.30487e-09 1.05833e-10 -2.43552e-10 1.90318e-09 5.19471e-11 7.73091 5.47488 0.417314 -2.43555e-10 1.90318e-09 5.19528e-11 2.90554 0.965183 0.102902 -2.43549e-10 1.90318e-09 5.19536e-11 10.2786 0.731801 0.0259123 -2.43558e-10 1.90318e-09 5.19634e-11 2.22167 -0.733487 -0.20892 1.34911e-14 -1.17919e-13 6.24806e-13 -73.6351 29.5795 12.4106 21.2731 -14.7015 -41.8711 0.536849 -20.3652 2.9903 -5.46733e-10 1.24731e-09 1.82828e-09 -9.83688e-10 2.10858e-09 3.15935e-09 -5.46735e-10 1.24731e-09 1.82828e-09 -7.73091 5.47488 -0.417314 -5.4674e-10 1.24731e-09 1.82827e-09 -2.90554 0.965183 -0.102902 -5.46738e-10 1.24732e-09 1.82828e-09 -10.2786 0.731801 -0.0259123 -5.46732e-10 1.24731e-09 1.82827e-09 -2.22167 -0.733487 0.20892 -2.03217e-16 0.0 -3.88251e-19 -0.698344 -18.6232 -4.64802 -0.136325 25.2413 0.351941 1.6581 -14.8553 6.52477 2.03217e-16 0.0 3.88251e-19 -0.586973 -16.5182 -2.28758 0.0558256 20.6905 -0.347126 2.87351 -11.205 9.49879
68.0926 82.6819 -120.017 1.0272 -22.5478 9.0189 1.13742 6.05666 -7.42929 -0.442429 -9.08611 -2.15883 11.9684 26.9489 7.43887 -49.519 -66.2132 -13.9446 -0.0 0.0 0.0 -0.0 0.0 0.0 -6.85596e-14 -1.8795e-13 8.41164e-13 72.1362 7.95424 -7.52809 -22.7859 -16.9818 45.9834 -0.0946775 8.69662 1.23198 -1.06373e-09 3.48081e-09 6.05302e-10 -1.83445e-09 6.03445e-09 1.0722e-09 -1.06372e-09 3.48081e-09 6.05295e-10 7.73091 5.47488 0.417314 -1.06373e-09 3.48081e-09 6.053e-10 2.90554 0.965183 0.102902 -1.06372e-09 3.48081e-09 6.05302e-10 10.2786 0.731801 0.0259123 -1.06373e-09 3.48081e-09 6.05312e-10 2.22167 -0.733487 -0.20892 -6.88455e-14 -1.87954e-13 8.40962e-13 -73.473 29.2379 12.8209 21.2316 -14.643 -41.7649 0.569694 -20.9505 3.08425 -3.19497e-10 1.32334e-09 1.78778e-09 -5.90742e-10 2.24307e-09 3.09393e-09 -3.19504e-10 1.32334e-09 1.78779e-09 -7.73091 5.47488 -0.417314 -3.19506e-10 1.32334e-09 1.78777e-09 -2.90554 0.965183 -0.102902 -3.19505e-10 1.32334e-09 1.78778e-09 -10.2786 0.731801 -0.0259123 -3.19495e-10 1.32334e-09 1.78777e-09 -2.22167 -0.733487 0.20892 -2.03217e-16 0.0 -3.88251e-19 -0.734133 -18.392 -4.5529 -0.136235 25.2343 0.352469 1.65175 -15.0146 6.44856 2.03217e-16 0.0 3.88251e-19 -0.615902 -16.2687 -2.16282 0.055322 20.6444 -0.345989 2.81906 -11.3518 9.20471
